<?xml version="1.0" standalone="no"?>
<!DOCTYPE svg PUBLIC "-//W3C//DTD SVG 20010904//EN"
 "http://www.w3.org/TR/2001/REC-SVG-20010904/DTD/svg10.dtd">
<svg version="1.0" xmlns="http://www.w3.org/2000/svg"
 width="960.000000pt" height="1088.000000pt" viewBox="0 0 960.000000 1088.000000"
 preserveAspectRatio="xMidYMid meet">

<g transform="translate(0.000000,1088.000000) scale(0.100000,-0.100000)"
fill="#000000" stroke="none">
<path d="M1705 9398 c-3 -7 -4 -1806 -3 -3998 l3 -3985 3268 -3 3267 -2 -2
3097 -3 3098 -887 3 -888 2 0 900 0 900 -2375 0 c-1891 0 -2377 -3 -2380 -12z
m4157 -1490 l3 -903 888 -5 888 -5 -1 -2485 c0 -1366 -4 -2488 -8 -2492 -5 -5
-1205 -7 -2668 -6 l-2659 3 -3 3385 c-1 1862 0 3391 3 3398 3 9 369 12 1780
12 l1775 0 2 -902z"/>
<path d="M3497 5983 c-4 -3 -7 -141 -7 -305 l0 -298 293 2 292 3 0 300 0 300
-286 3 c-157 1 -288 -1 -292 -5z"/>
<path d="M5795 5977 c-3 -7 -4 -143 -3 -302 l3 -290 298 -3 297 -2 0 305 0
305 -295 0 c-229 0 -297 -3 -300 -13z"/>
<path d="M4850 4384 c-14 -2 -70 -11 -125 -20 -178 -28 -365 -101 -520 -202
-92 -61 -247 -212 -318 -310 -139 -193 -250 -483 -273 -711 l-6 -68 98 -6 c55
-4 134 -7 177 -7 76 0 77 0 77 26 0 58 44 235 81 329 144 359 425 570 835 625
184 24 460 -39 638 -148 126 -76 271 -242 349 -397 38 -78 87 -239 102 -343 8
-52 16 -97 19 -99 2 -3 84 -2 180 2 l176 8 -6 41 c-33 248 -122 494 -247 684
-203 309 -519 511 -902 577 -92 16 -290 27 -335 19z"/>
<path d="M6502 8786 c3 -310 9 -569 12 -575 5 -8 90 -11 270 -11 l264 0 5 27
c3 14 2 156 -1 315 l-5 288 -260 260 c-143 143 -267 260 -275 260 -13 0 -14
-65 -10 -564z"/>
<path d="M7060 7925 l0 -275 560 0 c414 0 560 3 560 11 0 7 -118 130 -262 275
l-262 264 -298 0 -298 0 0 -275z"/>
</g>
</svg>
